# xmcd
# Track frame offsets:
# 150
# 15871
# 32506
# 45248
# 66073
# 84172
# 100459
# 117485
# 134988
# 147237
# 162310
# 178175
# 192411
# 206844
# 219896
# 234045
# 248108
# 261599
#
# Disc length: 3749 seconds
# Revision: 0
# Processed by: cddbd v1.5.1PL2 Copyright (c) Steve Scherf et al.
# Submitted via: VisiTrax 2.10.0.248 - For more info visit www.synapsa.com
#
DISCID=fc0ea312
DTITLE=Various Artist - PromoOnly Country March 2006
DYEAR=2006
DGENRE=
TTITLE0=Aaron Lines - Lights Of My Hometown
TTITLE1=Dierks Bentley - Settle For A Slowdown
TTITLE2=Joe Nichols - Size Matters (someday)
TTITLE3=Trisha Yearwood and Garth Brooks - Love Will Always Win
TTITLE4=Terri Clark - Damn Right
TTITLE5=Steve Holy - Brand New Girlfriend
TTITLE6=Amanda Wilkinson - It's Ok To Cry
TTITLE7=Phil Vassar - The Last Day Of My Life
TTITLE8=Jason McCoy - She Ain't Missin' Me
TTITLE9=Ty England - Redneck Anthem
TTITLE10=Chris Cagle - Wal-Mart Parking Lot
TTITLE11=Brad Johner - I've Got It Good
TTITLE12=Reba McEntire - Love Needs A Holiday
TTITLE13=Carolina Rain - Get Outta My Way
TTITLE14=Danielle Peck - Findin' A Good Man
TTITLE15=Cowboy Crush - Hillbilly Nation
TTITLE16=Scotty Emerick - What's Up With That
TTITLE17=Norman and Nancy Blake - Don't Be Afraid Of the Neo-Cons
EXTD=
EXTT0=
EXTT1=
EXTT2=
EXTT3=
EXTT4=
EXTT5=
EXTT6=
EXTT7=
EXTT8=
EXTT9=
EXTT10=
EXTT11=
EXTT12=
EXTT13=
EXTT14=
EXTT15=
EXTT16=
EXTT17=
PLAYORDER=
